<svg xmlns="http://www.w3.org/2000/svg" viewBox="0 0 396 288"><defs><style>.cls-1{fill:#231f20;}</style></defs><g id="Layer_2" data-name="Layer 2"><g id="Layer_1-2" data-name="Layer 1"><path class="cls-1" d="M252,0H18A18,18,0,0,0,0,18V270a18,18,0,0,0,18,18H219.73a9,9,0,0,0,6.36-15.36l-51.36-51.37A18,18,0,0,0,162,216H81a9,9,0,0,1-9-9V81a9,9,0,0,1,9-9H251c39.52,0,72.42,31.44,73,71a72,72,0,0,1-42.15,66.47,9.05,9.05,0,0,0-2.51,14.62L319,263.68a9,9,0,0,0,11.28,1.18A143.82,143.82,0,0,0,396,144h0A144,144,0,0,0,252,0Z"/></g></g></svg>