<svg xmlns="http://www.w3.org/2000/svg" viewBox="0 0 541 541"><defs><style>.cls-1{fill:#fff;stroke:#231f20;stroke-miterlimit:10;}.cls-2{fill:#231f20;}</style></defs><g id="Layer_2" data-name="Layer 2"><g id="Layer_1-2" data-name="Layer 1"><rect class="cls-1" x="0.5" y="0.5" width="540" height="540" rx="44.46"/><path class="cls-2" d="M324.5,126.5H90.5a18,18,0,0,0-18,18v252a18,18,0,0,0,18,18H292.23a9,9,0,0,0,6.36-15.36l-51.36-51.37a18,18,0,0,0-12.73-5.27h-81a9,9,0,0,1-9-9v-126a9,9,0,0,1,9-9h170c39.52,0,72.42,31.44,73,71a72,72,0,0,1-42.15,66.47,9.05,9.05,0,0,0-2.51,14.62l39.63,39.63a9,9,0,0,0,11.28,1.18A143.82,143.82,0,0,0,468.5,270.5h0A144,144,0,0,0,324.5,126.5Z"/></g></g></svg>